<svg width="843" height="254" viewBox="0 0 843 254" fill="none" xmlns="http://www.w3.org/2000/svg">
<path d="M271.421 187.073C267.586 184.166 266.659 181.229 268.638 178.26L275.781 167.498C278.132 163.973 281.564 163.787 286.079 166.941C289.543 169.354 294.058 171.858 299.624 174.456C305.252 176.992 311.159 178.26 317.344 178.26C321.673 178.26 325.848 177.765 329.868 176.775C333.888 175.786 336.95 173.868 339.053 171.023C341.156 168.178 342.207 164.808 342.207 160.911C342.207 158.128 341.743 155.685 340.815 153.582C339.888 151.479 338.372 149.747 336.27 148.387C334.167 147.026 332.002 145.882 329.775 144.954C325.879 143.346 320.962 141.769 315.024 140.223C309.149 138.615 303.335 136.697 297.583 134.471C292.45 132.492 287.749 129.77 283.481 126.307C279.214 122.843 275.905 118.947 273.555 114.617C271.204 110.288 270.029 104.505 270.029 97.2686C270.029 88.6715 272.812 81.3115 278.379 75.1885C283.945 69.0654 290.347 65.138 297.583 63.4062C304.819 61.6745 312.118 60.8086 319.478 60.8086C326.776 60.8086 334.29 61.9219 342.021 64.1484C349.814 66.375 355.69 69.1582 359.648 72.498C363.545 75.776 364.504 78.7448 362.524 81.4043L355.01 91.5166C352.474 94.9801 349.072 95.2585 344.805 92.3516C342.083 90.4961 338.341 88.4242 333.579 86.1357C328.879 83.8473 323.962 82.7031 318.828 82.7031C315.179 82.7031 311.808 83.0124 308.716 83.6309C305.685 84.2493 302.995 85.7337 300.645 88.084C298.294 90.4342 297.119 93.3411 297.119 96.8047C297.119 100.145 297.985 102.866 299.717 104.969C301.449 107.01 303.366 108.556 305.469 109.607C307.572 110.597 309.705 111.432 311.87 112.112C318.55 114.277 324.518 116.194 329.775 117.864C335.033 119.472 339.888 121.266 344.341 123.245C350.526 126.028 355.257 128.812 358.535 131.595C361.813 134.378 364.504 138.182 366.606 143.006C368.771 147.83 369.854 153.582 369.854 160.262C369.854 170.158 366.699 178.353 360.391 184.847C354.082 191.279 347.062 195.423 339.331 197.278C331.662 199.196 324.178 200.154 316.88 200.154C306.118 200.154 297.367 199.103 290.625 197C283.883 194.959 277.482 191.65 271.421 187.073ZM394.531 197C390.82 197 388.965 195.145 388.965 191.434V65.6328C388.965 61.9219 390.82 60.0664 394.531 60.0664H409.375C413.086 60.0664 414.941 61.9219 414.941 65.6328V103.113C414.941 105.587 414.818 108.061 414.57 110.535H415.127C417.972 105.649 421.59 102.309 425.981 100.516C430.373 98.6602 435.661 97.7324 441.846 97.7324C451.494 97.7324 459.473 100.763 465.781 106.824C472.09 112.885 475.244 123.956 475.244 140.037V191.434C475.244 195.145 473.389 197 469.678 197H454.834C451.123 197 449.268 195.145 449.268 191.434V146.717C449.268 133.234 448.34 124.729 446.484 121.204C444.629 117.679 440.64 115.916 434.517 115.916C428.022 115.916 423.136 118.452 419.858 123.523C416.58 128.533 414.941 138.986 414.941 154.881V191.434C414.941 195.145 413.086 197 409.375 197H394.531ZM495.098 148.294C495.098 132.522 499.149 120.153 507.251 111.185C515.415 102.216 527.537 97.7324 543.618 97.7324C559.699 97.7324 571.79 102.216 579.893 111.185C588.057 120.153 592.139 132.522 592.139 148.294C592.139 164.065 588.057 176.435 579.893 185.403C571.79 194.371 559.699 198.855 543.618 198.855C527.537 198.855 515.415 194.371 507.251 185.403C499.149 176.435 495.098 164.065 495.098 148.294ZM522.559 148.294C522.559 160.045 524.352 168.395 527.939 173.343C531.589 178.229 536.815 180.672 543.618 180.672C550.422 180.672 555.617 178.229 559.204 173.343C562.853 168.395 564.678 160.045 564.678 148.294C564.678 136.543 562.853 128.224 559.204 123.338C555.617 118.39 550.422 115.916 543.618 115.916C536.815 115.916 531.589 118.39 527.939 123.338C524.352 128.224 522.559 136.543 522.559 148.294ZM608.931 118.143C605.282 118.143 603.457 116.596 603.457 113.504V104.227C603.457 101.134 605.282 99.5879 608.931 99.5879H615.239V96.3408C615.239 93.5576 615.889 91.0218 617.188 88.7334L624.331 76.209C625.692 73.8587 627.3 72.6836 629.155 72.6836H635.649C639.36 72.6836 641.216 74.5391 641.216 78.25V99.5879H656.245C659.894 99.5879 661.719 101.134 661.719 104.227V113.504C661.719 116.596 659.894 118.143 656.245 118.143H641.216V164.158C641.216 170.467 641.649 175.013 642.515 177.796C643.442 180.517 645.793 181.878 649.565 181.878C651.483 181.878 653.647 181.569 656.06 180.95C658.472 180.27 660.358 179.62 661.719 179.002C663.883 178.012 665.306 178.724 665.986 181.136L668.77 191.712C669.326 193.815 668.522 195.361 666.357 196.351C664.316 197.278 661.502 198.113 657.915 198.855C654.39 199.66 650.833 200.062 647.246 200.062C638.402 200.062 630.856 198.237 624.609 194.588C618.363 190.939 615.239 183.424 615.239 172.044V118.143H608.931ZM684.263 190.506C681.232 188.341 680.397 186.022 681.758 183.548L686.489 174.92C688.159 171.827 690.757 171.456 694.282 173.807C697.808 176.157 701.951 177.889 706.714 179.002C711.538 180.115 715.929 180.672 719.888 180.672C722.671 180.672 725.269 180.394 727.681 179.837C730.093 179.28 732.134 178.198 733.804 176.59C735.474 174.982 736.309 172.632 736.309 169.539C736.309 167.684 735.814 166.106 734.824 164.808C733.835 163.509 732.567 162.519 731.021 161.839C729.474 161.159 727.835 160.602 726.104 160.169C723.815 159.612 720.506 158.685 716.177 157.386C711.909 156.087 707.796 154.572 703.838 152.84C700.56 151.417 697.344 149.438 694.189 146.902C691.097 144.305 688.809 141.429 687.324 138.274C685.902 135.12 685.19 131.224 685.19 126.585C685.19 120.338 686.984 114.865 690.571 110.164C694.22 105.464 698.921 102.216 704.673 100.423C710.425 98.6292 717.599 97.7324 726.196 97.7324C732.01 97.7324 737.669 98.5674 743.174 100.237C748.678 101.907 752.606 103.484 754.956 104.969C758.667 107.319 759.595 109.824 757.739 112.483L752.08 120.74C750.348 123.214 747.565 123.4 743.73 121.297C740.824 119.689 737.948 118.39 735.103 117.4C732.319 116.411 729.196 115.916 725.732 115.916C723.382 115.916 721.125 116.163 718.96 116.658C716.795 117.153 714.94 118.081 713.394 119.441C711.909 120.802 711.167 122.596 711.167 124.822C711.167 127.173 711.847 129.028 713.208 130.389C714.631 131.688 716.239 132.646 718.032 133.265C719.888 133.883 721.65 134.471 723.32 135.027C726.784 136.141 730.278 137.223 733.804 138.274C737.329 139.264 740.916 140.47 744.565 141.893C747.72 143.13 750.781 144.892 753.75 147.181C756.719 149.469 758.883 152.376 760.244 155.901C761.605 159.427 762.285 163.447 762.285 167.962C762.285 173.961 760.492 179.528 756.904 184.661C753.317 189.795 748.586 193.444 742.71 195.608C736.834 197.773 730 198.855 722.207 198.855C713.486 198.855 706.064 198.237 699.941 197C693.818 195.763 688.592 193.598 684.263 190.506Z" fill="white"/>
<g clip-path="url(#clip0_117_13)">
<path d="M191.125 65.75C203.22 65.75 213.117 74.8619 213.889 86.3813L213.938 87.8333V171.75H227.625C235.184 171.75 241.312 177.682 241.312 185C241.312 191.887 235.884 197.547 228.943 198.189L227.625 198.25H213.938V211.5C213.938 218.818 207.809 224.75 200.25 224.75C193.136 224.75 187.288 219.495 186.625 212.776L186.562 211.5V92.25H122.688V65.75H191.125ZM90.75 39.25C98.3094 39.25 104.438 45.1822 104.438 52.5V171.75H168.312V198.25H99.875C87.276 198.25 77.0625 188.363 77.0625 176.167V92.25H63.375C55.8156 92.25 49.6875 86.3178 49.6875 79C49.6875 71.6822 55.8156 65.75 63.375 65.75H77.0625V52.5C77.0625 45.1822 83.1906 39.25 90.75 39.25Z" fill="white"/>
</g>
<defs>
<clipPath id="clip0_117_13">
<rect width="219" height="212" fill="white" transform="translate(29 26)"/>
</clipPath>
</defs>
</svg>
