<svg width="843" height="276" viewBox="0 0 843 276" fill="none" xmlns="http://www.w3.org/2000/svg">
<path d="M276.338 197C272.008 197 269.844 194.681 269.844 190.042V70.9209C269.844 66.2822 272.008 63.9629 276.338 63.9629H291.367C295.078 63.9629 296.934 66.2822 296.934 70.9209V173.992H351.021C355.659 173.992 357.979 176.002 357.979 180.022V190.97C357.979 194.99 355.659 197 351.021 197H276.338ZM375.234 156.551V105.154C375.234 101.443 377.09 99.5879 380.801 99.5879H395.645C399.355 99.5879 401.211 101.443 401.211 105.154V149.871C401.211 163.354 402.139 171.858 403.994 175.384C405.85 178.909 409.746 180.672 415.684 180.672C421.992 180.672 426.785 178.167 430.063 173.157C433.341 168.086 434.98 157.602 434.98 141.707V105.154C434.98 101.443 436.836 99.5879 440.547 99.5879H455.391C459.102 99.5879 460.957 101.443 460.957 105.154V191.434C460.957 195.145 459.102 197 455.391 197H440.732C437.021 197 435.166 195.145 435.166 191.434V186.053H434.795C431.95 190.939 428.332 194.31 423.94 196.165C419.549 197.959 414.354 198.855 408.354 198.855C398.892 198.855 391.006 195.825 384.697 189.764C378.389 183.702 375.234 172.632 375.234 156.551ZM491.758 197C488.047 197 486.191 195.145 486.191 191.434V105.154C486.191 101.443 488.047 99.5879 491.758 99.5879H506.416C510.127 99.5879 511.982 101.443 511.982 105.154V110.535H512.354C515.199 105.649 518.817 102.309 523.208 100.516C527.599 98.6602 532.887 97.7324 539.072 97.7324C548.721 97.7324 556.699 100.763 563.008 106.824C569.316 112.885 572.471 123.956 572.471 140.037V191.434C572.471 195.145 570.615 197 566.904 197H552.061C548.35 197 546.494 195.145 546.494 191.434V146.717C546.494 133.234 545.566 124.729 543.711 121.204C541.855 117.679 537.866 115.916 531.743 115.916C525.249 115.916 520.363 118.452 517.085 123.523C513.807 128.533 512.168 138.986 512.168 154.881V191.434C512.168 195.145 510.312 197 506.602 197H491.758ZM592.324 171.023C592.324 158.654 598.231 149.686 610.044 144.119C621.857 138.553 635.34 135.584 650.493 135.213V131.502C650.493 125.812 649.071 121.792 646.226 119.441C643.381 117.091 639.422 115.916 634.351 115.916C630.763 115.916 627.578 116.442 624.795 117.493C622.074 118.483 619.692 119.658 617.651 121.019C615.672 122.317 613.879 123.647 612.271 125.008C609.425 127.482 607.075 127.605 605.22 125.379L597.52 115.916C595.602 113.566 596.066 111.154 598.911 108.68C601.076 106.762 603.581 105.092 606.426 103.67C609.333 102.247 613.167 100.918 617.93 99.6807C622.692 98.3818 628.877 97.7324 636.484 97.7324C649.349 97.7324 659.214 100.701 666.079 106.639C673.006 112.576 676.47 121.328 676.47 132.894V191.434C676.47 195.145 674.614 197 670.903 197H655.688C652.349 197 650.679 195.145 650.679 191.434V188.65H650.493C646.844 192.176 642.453 194.773 637.319 196.443C632.248 198.051 627.578 198.855 623.311 198.855C613.167 198.855 605.467 196.382 600.21 191.434C594.953 186.424 592.324 179.62 592.324 171.023ZM619.785 170.467C619.785 172.632 620.218 174.518 621.084 176.126C621.95 177.672 623.311 178.816 625.166 179.559C627.021 180.301 629.093 180.672 631.382 180.672C634.536 180.672 637.598 180.239 640.566 179.373C643.535 178.507 646.844 176.466 650.493 173.25V153.118C640.103 154.293 633.145 155.809 629.619 157.664C626.094 159.52 623.558 161.437 622.012 163.416C620.527 165.395 619.785 167.745 619.785 170.467ZM707.363 197C703.652 197 701.797 195.145 701.797 191.434V105.154C701.797 101.443 703.652 99.5879 707.363 99.5879H722.021C725.732 99.5879 727.588 101.443 727.588 105.154V112.762H727.959C729.567 108.803 732.257 105.309 736.03 102.278C739.803 99.2477 744.256 97.7324 749.39 97.7324C752.915 97.7324 755.822 98.1654 758.11 99.0312C760.275 99.8353 761.11 101.32 760.615 103.484L758.018 114.524C757.461 116.998 755.791 117.741 753.008 116.751C751.4 116.194 749.854 115.916 748.369 115.916C742.432 115.916 737.515 119.472 733.618 126.585C729.722 133.698 727.773 144.057 727.773 157.664V191.434C727.773 195.145 725.918 197 722.207 197H707.363Z" fill="url(#paint0_linear_128_2)"/>
<g clip-path="url(#clip0_128_2)">
<path d="M191.125 65.75C203.22 65.75 213.117 74.8619 213.889 86.3813L213.938 87.8333V171.75H227.625C235.184 171.75 241.312 177.682 241.312 185C241.312 191.887 235.884 197.547 228.943 198.189L227.625 198.25H213.938V211.5C213.938 218.818 207.809 224.75 200.25 224.75C193.136 224.75 187.288 219.495 186.625 212.776L186.562 211.5V92.25H122.688V65.75H191.125ZM90.75 39.25C98.3094 39.25 104.438 45.1822 104.438 52.5V171.75H168.312V198.25H99.875C87.276 198.25 77.0625 188.363 77.0625 176.167V92.25H63.375C55.8156 92.25 49.6875 86.3178 49.6875 79C49.6875 71.6822 55.8156 65.75 63.375 65.75H77.0625V52.5C77.0625 45.1822 83.1906 39.25 90.75 39.25Z" fill="url(#paint1_linear_128_2)"/>
</g>
<defs>
<linearGradient id="paint0_linear_128_2" x1="519" y1="6" x2="519" y2="192" gradientUnits="userSpaceOnUse">
<stop stop-color="white"/>
<stop offset="1" stop-color="#7A7A7A"/>
</linearGradient>
<linearGradient id="paint1_linear_128_2" x1="145.5" y1="39.25" x2="145.5" y2="224.75" gradientUnits="userSpaceOnUse">
<stop offset="0.58" stop-color="#BAB8B8"/>
<stop offset="1" stop-color="#7A7A7A"/>
</linearGradient>
<clipPath id="clip0_128_2">
<rect width="219" height="212" fill="white" transform="translate(29 26)"/>
</clipPath>
</defs>
</svg>
